<?xml version="1.0" encoding="UTF-8"?>
<svg width="4006px" height="2652px" viewBox="0 0 4006 2652" version="1.1" xmlns="http://www.w3.org/2000/svg" xmlns:xlink="http://www.w3.org/1999/xlink">
    <!-- Generator: Sketch 53.1 (72631) - https://sketchapp.com -->
    <title>logo</title>
    <desc>Created with Sketch.</desc>
    <g id="logo" stroke="none" stroke-width="1" fill="none" fill-rule="evenodd">
        <polygon id="Path" fill="#111111" points="20 140 260 0 1962.63136 985.838291 1711.69422 1131.71398"></polygon>
        <polygon id="Path-2" fill="#111111" points="0 182.316408 1664.9744 1157.4109 1424.60612 1293.52217 240 606.29917 240 2631.0422 0 2492.70384"></polygon>
        <polygon id="Path-3" fill="#111111" points="3765.54374 20 4006 160 4006 2470.80439 2341.4098 1494.65718 2581.15511 1358.79586 3765.54374 2046.64093"></polygon>
        <polygon id="Path-4" fill="#111111" points="578.337154 1837.45021 578.337154 2120 3475.00322 452.636573 3475.00322 1820 3720 1967.25422 3720 20"></polygon>
        <polygon id="Path-5" fill="#111111" points="287.011807 686.596508 531.659092 829.895568 531.659092 2200 3428.33063 532.22775 3428.33063 814.176637 287.011807 2631.0422"></polygon>
        <polygon id="Path-6" fill="#111111" points="2294.25609 1521.53321 2051.21717 1662.41471 3745.30408 2652 3982.73285 2510.50874"></polygon>
    </g>
</svg>