<?xml version="1.0" encoding="UTF-8"?>
<svg width="800px" height="536px" viewBox="0 0 800 536" version="1.1" xmlns="http://www.w3.org/2000/svg" xmlns:xlink="http://www.w3.org/1999/xlink">
    <g id="logo_lowres" stroke="none" stroke-width="1" fill="none" fill-rule="evenodd">
        <g id="Group" transform="translate(0.000000, 1.000000)" fill="#111111" fill-rule="nonzero">
            <polygon id="Path" points="8 23.588387 340.523654 219 383 194.24697 48.3383558 0"></polygon>
            <polygon id="Path" points="0 40 0 496.742257 40.3763295 520 40.3763295 111.492507 283.588485 252.492253 324 229.624084"></polygon>
            <polygon id="Path" points="759.522657 415.38714 516.300558 274.076819 476 296.923928 800 487 800 29.5764496 759.522657 6"></polygon>
            <polygon id="Path" points="117 368.266374 117 416 701.626069 79.3638432 701.626069 360.130034 743 385.006284 743 6"></polygon>
            <polygon id="Path" points="57 141.245436 57 520 683 157.639035 683 110 98.3079748 446.915475 98.3079748 165.460919"></polygon>
            <polygon id="Path" points="418 331.688356 751.088584 526 791 502.247194 458.919965 308"></polygon>
        </g>
    </g>
</svg>